Coordinates
version=1
nRows=14
nColumns=40
inDegrees=yes

Units are S.I. units (second, meters, Newtons, ...)
If the header above contains a line with 'inDegrees', this indicates whether rotational values are in degrees (yes) or radians (no).

endheader
time	pelvis_tilt	pelvis_list	pelvis_rotation	pelvis_tx	pelvis_ty	pelvis_tz	hip_flexion_r	hip_adduction_r	hip_rotation_r	knee_angle_r	knee_angle_r_beta	ankle_angle_r	subtalar_angle_r	mtp_angle_r	hip_flexion_l	hip_adduction_l	hip_rotation_l	knee_angle_l	knee_angle_l_beta	ankle_angle_l	subtalar_angle_l	mtp_angle_l	lumbar_extension	lumbar_bending	lumbar_rotation	arm_flex_r	arm_add_r	arm_rot_r	elbow_flex_r	pro_sup_r	wrist_flex_r	wrist_dev_r	arm_flex_l	arm_add_l	arm_rot_l	elbow_flex_l	pro_sup_l	wrist_flex_l	wrist_dev_l
      8.05000000	      8.18933977	     -0.86495779	     -0.72126167	      0.04993762	      1.32223545	     -0.00077454	     62.62897458	      4.17991380	      1.89460968	     83.21745657	      1.45241861	    -14.14706414	    -22.78752970	      0.00000000	     22.95744965	     -4.80331389	      4.00968266	     56.68161889	      0.98928087	    -23.55507489	    -18.18709573	      0.00000000	    -62.68545862	     -0.05308096	      3.53025710	     50.41475528	     14.07220028	    -63.09079041	     49.17617528	     81.41928951	      0.00000000	      0.00000000	     58.91963180	     15.32669756	    -61.37953497	     44.04564112	     60.68909690	      0.00000000	      0.00000000
      8.06700000	      8.57482824	     -0.06132244	     -0.58462386	      0.05005737	      1.32281317	     -0.00047057	     60.65952531	      3.61059155	      2.40823866	     79.99008580	      1.39609037	    -14.28791781	    -22.69960161	      0.00000000	     23.98038068	     -4.03579205	      4.07495520	     60.52020113	      1.05627677	    -23.81316785	    -18.24004585	      0.00000000	    -62.93035916	     -0.54322165	      2.76961619	     50.24285424	     14.10742779	    -63.15321276	     49.09406848	     81.42260978	      0.00000000	      0.00000000	     58.96343125	     15.29539089	    -61.27422785	     43.94356019	     60.73498649	      0.00000000	      0.00000000
      8.08300000	      8.73740552	      0.38113630	      0.15411141	      0.04990686	      1.32324907	     -0.00104780	     58.56007493	      2.51906549	      2.15677985	     76.36779079	      1.33286939	    -14.69061929	    -22.26240629	      0.00000000	     25.51097071	     -3.31228844	      4.79152770	     64.55959209	      1.12677745	    -23.89285687	    -18.95525955	      0.00000000	    -62.97002591	     -0.30189711	      2.07092628	     50.25959324	     13.98633828	    -63.46235915	     48.76262581	     81.41988748	      0.00000000	      0.00000000	     58.96905212	     15.30374014	    -61.19562481	     43.85902326	     60.82950674	      0.00000000	      0.00000000
      8.10000000	      8.93724228	      1.10012177	      0.66274288	      0.04985706	      1.32361462	     -0.00138396	     56.24329289	      1.52753433	      2.30807141	     72.76103789	      1.26991968	    -15.11911787	    -21.93522367	      0.00000000	     27.00554698	     -2.39093263	      5.20210405	     68.46987309	      1.19502472	    -23.91057195	    -19.19841920	      0.00000000	    -63.04645242	     -0.42157830	      1.20223695	     50.14288618	     13.94364117	    -63.58649811	     48.51674525	     81.40185451	      0.00000000	      0.00000000	     58.97169051	     15.27564427	    -61.08944399	     43.76972858	     60.92635195	      0.00000000	      0.00000000
      8.11700000	      9.07001669	      2.00094126	      0.92099908	      0.04986534	      1.32395748	     -0.00125801	     53.72361689	      0.69417670	      2.78488419	     68.96056484	      1.20358891	    -15.48412197	    -21.73150472	      0.00000000	     28.53188246	     -1.45587334	      5.26856099	     72.15041677	      1.25926233	    -23.73846464	    -19.22805219	      0.00000000	    -63.09305089	     -0.92000457	      0.30912988	     49.91693610	     13.86393808	    -63.65857923	     48.35442918	     81.39369289	      0.00000000	      0.00000000	     58.99815705	     15.28018939	    -60.99671437	     43.67764099	     60.97111077	      0.00000000	      0.00000000
      8.13300000	      9.16603671	      2.58292226	      1.80015072	      0.04975404	      1.32410613	     -0.00199010	     51.02310591	     -0.59345379	      2.36729163	     65.03264246	      1.13503373	    -16.27807677	    -21.16572580	      0.00000000	     30.35258593	     -0.52367638	      5.94840591	     76.02227714	      1.32683904	    -23.14904076	    -19.25205574	      0.00000000	    -63.09575488	     -0.72184210	     -0.55837133	     49.82291166	     13.60390109	    -63.81002369	     47.84698189	     81.35393140	      0.00000000	      0.00000000	     59.01514448	     15.37345767	    -60.90921599	     43.65440847	     61.06061875	      0.00000000	      0.00000000
      8.15000000	      9.12877574	      3.59347924	      2.10228406	      0.04977081	      1.32414525	     -0.00189108	     48.34038311	     -1.52911604	      2.88127933	     61.11000473	      1.06657079	    -16.75574837	    -21.02030848	      0.00000000	     32.19195941	      0.48563547	      5.81371853	     79.50428900	      1.38761161	    -22.71252293	    -19.15969906	      0.00000000	    -62.99980518	     -1.29013269	     -1.49908881	     49.52390470	     13.47252389	    -63.91447969	     47.69551100	     81.33087677	      0.00000000	      0.00000000	     59.01629690	     15.48785752	    -60.82310028	     43.54167843	     61.10922289	      0.00000000	      0.00000000
      8.16700000	      9.12833506	      4.29620976	      2.99557157	      0.04953484	      1.32417782	     -0.00265129	     45.51423984	     -2.81076309	      2.54803530	     57.09895243	      0.99656472	    -18.45029825	    -20.41763692	      0.00000000	     34.14920916	      1.58969774	      6.32445398	     83.12188292	      1.45075054	    -21.25098310	    -18.96886474	      0.00000000	    -62.94435236	     -1.14932596	     -2.47951600	     49.37480770	     13.19184702	    -63.99374309	     47.17797548	     81.24884535	      0.00000000	      0.00000000	     59.01450615	     15.58029677	    -60.71727692	     43.46549575	     61.21838950	      0.00000000	      0.00000000
      8.18300000	      8.98051041	      5.27559635	      3.52221366	      0.04940723	      1.32398631	     -0.00283915	     42.71790213	     -3.87459726	      2.86182958	     53.07363505	      0.92630968	    -20.00035654	    -20.07786887	      0.00000000	     36.22648022	      2.74582728	      6.27730589	     86.47151746	      1.50921269	    -19.88521255	    -18.83675543	      0.00000000	    -62.76658935	     -1.51419445	     -3.50610514	     49.08161750	     13.01413546	    -64.07565358	     46.89490152	     81.18233954	      0.00000000	      0.00000000	     58.99672960	     15.68147468	    -60.60034498	     43.34320375	     61.30059284	      0.00000000	      0.00000000
      8.20000000	      8.80751602	      6.14483526	      4.16997887	      0.04922789	      1.32376277	     -0.00322728	     39.91791438	     -4.97112225	      2.92978136	     49.20339875	      0.85876131	    -21.59628455	    -19.86023456	      0.00000000	     38.37117882	      3.87696903	      6.30598674	     89.58977916	      1.56363662	    -18.48354934	    -18.51214183	      0.00000000	    -62.57075743	     -1.71511308	     -4.48686396	     48.82050968	     12.76371901	    -64.14124609	     46.51686494	     81.10119778	      0.00000000	      0.00000000	     58.95049609	     15.83160612	    -60.53217057	     43.27595873	     61.38402370	      0.00000000	      0.00000000
      8.21700000	      8.58213608	      6.95078713	      4.82735015	      0.04893220	      1.32347076	     -0.00356133	     37.16840075	     -5.98622674	      3.02870452	     45.57543388	      0.79544138	    -23.00631783	    -19.72718113	      0.00000000	     40.61896934	      4.98765471	      6.31811260	     92.43839222	      1.61335430	    -17.33693795	    -18.14715071	      0.00000000	    -62.34161094	     -1.88971932	     -5.43067868	     48.58378596	     12.58458281	    -64.21281451	     46.19010170	     81.00798641	      0.00000000	      0.00000000	     58.92655640	     16.00609617	    -60.51023384	     43.19180647	     61.46556519	      0.00000000	      0.00000000
      8.23300000	      8.43929222	      7.60067479	      5.76388643	      0.04873620	      1.32331020	     -0.00421051	     34.19713382	     -7.07466631	      2.56442325	     42.07951549	      0.73442609	    -24.27340407	    -19.86375403	      0.00000000	     42.80763694	      6.20569664	      6.65310528	     95.03176924	      1.65861727	    -16.19372186	    -17.38752713	      0.00000000	    -62.17501950	     -1.73049658	     -6.38559731	     48.33776499	     12.36247578	    -64.30405559	     45.77641485	     80.67997928	      0.00000000	      0.00000000	     58.87278380	     16.19297771	    -60.58821427	     43.20181703	     61.69729688	      0.00000000	      0.00000000
      8.25000000	      8.04791772	      8.39774411	      6.22693745	      0.04850592	      1.32264072	     -0.00432638	     31.75182655	     -7.98115656	      2.85095940	     38.95549520	      0.67990165	    -25.45115707	    -19.71133011	      0.00000000	     45.27136611	      7.21397389	      6.24473591	     97.27344145	      1.69774183	    -15.22078043	    -17.30097624	      0.00000000	    -61.79360805	     -2.09473722	     -7.24838996	     48.07413891	     12.23458324	    -64.41279055	     45.52400007	     80.49964791	      0.00000000	      0.00000000	     58.82672757	     16.37731330	    -60.61324517	     43.12143968	     61.75438775	      0.00000000	      0.00000000
      8.26700000	      7.70526345	      9.07140271	      6.83803114	      0.04828993	      1.32211780	     -0.00452005	     29.24202032	     -8.95734169	      2.56264848	     35.98701651	      0.62809193	    -26.63982642	    -19.78856795	      0.00000000	     47.69049494	      8.23649076	      5.91294771	     99.11060528	      1.72980639	    -14.33981073	    -17.25322789	      0.00000000	    -61.48894626	     -2.26002882	     -8.08012127	     47.87111538	     12.08044584	    -64.55666591	     45.20691555	     80.35596271	      0.00000000	      0.00000000	     58.78613018	     16.55125025	    -60.58608466	     43.12347379	     61.85231851	      0.00000000	      0.00000000
